<svg width="41" height="41" viewBox="0 0 41 41" fill="none" xmlns="http://www.w3.org/2000/svg">
<path d="M20.6438 6.80859C17.6771 6.80859 14.777 7.68833 12.3103 9.33655C9.84352 10.9848 7.92093 13.3275 6.78561 16.0683C5.6503 18.8092 5.35325 21.8252 5.93203 24.735C6.5108 27.6447 7.93942 30.3174 10.0372 32.4152C12.135 34.513 14.8077 35.9416 17.7175 36.5204C20.6272 37.0992 23.6432 36.8021 26.3841 35.6668C29.1249 34.5315 31.4676 32.6089 33.1158 30.1422C34.7641 27.6754 35.6438 24.7753 35.6438 21.8086C35.6393 17.8317 34.0574 14.0191 31.2454 11.207C28.4333 8.39496 24.6207 6.81314 20.6438 6.80859ZM20.6438 34.3086C18.1715 34.3086 15.7548 33.5755 13.6992 32.202C11.6436 30.8284 10.0414 28.8762 9.09531 26.5921C8.14922 24.3081 7.90167 21.7947 8.38399 19.37C8.86631 16.9452 10.0568 14.7179 11.805 12.9698C13.5531 11.2216 15.7804 10.0311 18.2052 9.54878C20.6299 9.06646 23.1433 9.314 25.4273 10.2601C27.7114 11.2062 29.6637 12.8084 31.0372 14.864C32.4107 16.9196 33.1438 19.3363 33.1438 21.8086C33.1401 25.1227 31.8219 28.2999 29.4785 30.6433C27.1351 32.9867 23.9579 34.3049 20.6438 34.3086ZM27.7782 14.6742C27.8944 14.7903 27.9866 14.9282 28.0495 15.0799C28.1124 15.2317 28.1448 15.3943 28.1448 15.5586C28.1448 15.7229 28.1124 15.8855 28.0495 16.0373C27.9866 16.189 27.8944 16.3269 27.7782 16.443L21.5282 22.693C21.412 22.8091 21.2742 22.9012 21.1224 22.9641C20.9707 23.0269 20.808 23.0593 20.6438 23.0593C20.4796 23.0593 20.3169 23.0269 20.1652 22.9641C20.0134 22.9012 19.8756 22.8091 19.7594 22.693C19.6433 22.5768 19.5512 22.439 19.4883 22.2872C19.4255 22.1355 19.3931 21.9728 19.3931 21.8086C19.3931 21.6444 19.4255 21.4817 19.4883 21.33C19.5512 21.1782 19.6433 21.0404 19.7594 20.9242L26.0094 14.6742C26.1255 14.558 26.2634 14.4658 26.4151 14.4029C26.5669 14.34 26.7295 14.3076 26.8938 14.3076C27.0581 14.3076 27.2207 14.34 27.3725 14.4029C27.5242 14.4658 27.6621 14.558 27.7782 14.6742ZM15.6438 3.05859C15.6438 2.72707 15.7755 2.40913 16.0099 2.17471C16.2443 1.94029 16.5623 1.80859 16.8938 1.80859H24.3938C24.7253 1.80859 25.0433 1.94029 25.2777 2.17471C25.5121 2.40913 25.6438 2.72707 25.6438 3.05859C25.6438 3.39011 25.5121 3.70806 25.2777 3.94248C25.0433 4.1769 24.7253 4.30859 24.3938 4.30859H16.8938C16.5623 4.30859 16.2443 4.1769 16.0099 3.94248C15.7755 3.70806 15.6438 3.39011 15.6438 3.05859Z" fill="black"/>
</svg>
