<svg width="24" height="24" viewBox="0 0 24 24" fill="none" xmlns="http://www.w3.org/2000/svg">
    <path d="M22 4.01C21.9 4 21.8 4 21.7 4C21.1 4.1 20.5 4.3 19.9 4.5C20.6 3.9 21.1 3 21.3 2.1C20.7 2.6 20 2.9 19.2 3.2C18.2 2 16.7 1.8 15.5 2.5C14.3 3.2 13.6 4.6 13.9 6C10.7 5.8 7.7 4.2 5.7 1.7C4.5 3.9 5.1 6.7 7.1 8C6.5 8 6 7.8 5.5 7.5C5.5 9.8 7.1 11.8 9.4 12.2C8.9 12.4 8.3 12.4 7.8 12.3C8.3 14.3 10.2 15.7 12.3 15.7C10.5 17.1 8.2 17.8 6 17.6C8.1 19 10.5 19.7 13 19.7C18.8 19.7 23.1 14.9 22.9 9.1C22.9 9 22.9 8.8 22.9 8.7C23.6 8.1 24.1 7.3 24.5 6.5C23.8 6.8 23 7 22.3 7.1C23.1 6.6 23.7 5.8 24 4.9C23.2 5.4 22.3 5.7 21.4 5.9C20.6 5 19.5 4.5 18.3 4.5C16.5 4.5 15 6 15 7.8C15 8.1 15 8.4 15.1 8.7C12.3 8.5 9.7 7.2 8 5.1C7.7 5.7 7.5 6.3 7.5 7C7.5 8.3 8.1 9.5 9.1 10.2C8.5 10.2 8 10 7.5 9.8V9.8C7.5 11.4 8.6 12.8 10.1 13.2C9.8 13.3 9.5 13.3 9.2 13.3C9 13.3 8.8 13.3 8.6 13.3C9 14.7 10.3 15.7 11.8 15.7C10.6 16.7 9.1 17.2 7.5 17.2C7.2 17.2 7 17.2 6.8 17.2C8.4 18.2 10.3 18.7 12.2 18.7" fill="black"/>
</svg> 